<svg xmlns="http://www.w3.org/2000/svg" version="1.1" xmlns:xlink="http://www.w3.org/1999/xlink" xmlns:svgjs="http://svgjs.com/svgjs" width="1440" height="560" preserveAspectRatio="none" viewBox="0 0 1440 560"><g mask="url(&quot;#SvgjsMask1005&quot;)" fill="none"><rect width="1440" height="560" x="0" y="0" fill="#0e2a47"></rect><path d="M257.43 65.27L295.68 65.27L295.68 103.52L257.43 103.52z" stroke="rgba(20, 83, 97, 1)"></path><path d="M75.81 326.95a7.21 7.21 0 1 0-3.79 13.91z" fill="rgba(3, 123, 11, 1)"></path><path d="M929.48 268.04 a20.26 20.26 0 1 0 40.52 0 a20.26 20.26 0 1 0 -40.52 0z" stroke="rgba(20, 83, 97, 1)"></path><path d="M348.85 281.74 a3.37 3.37 0 1 0 6.74 0 a3.37 3.37 0 1 0 -6.74 0z" stroke="rgba(20, 83, 97, 1)"></path><path d="M362.87 260.98 a21.12 21.12 0 1 0 42.24 0 a21.12 21.12 0 1 0 -42.24 0z" stroke="rgba(194, 65, 12, 1)"></path><path d="M99.97 338.32L108.71 338.32L108.71 347.06L99.97 347.06z" stroke="rgba(3, 123, 11, 1)"></path><path d="M510.92 259.68 a6.17 6.17 0 1 0 12.34 0 a6.17 6.17 0 1 0 -12.34 0z" fill="rgba(3, 123, 11, 1)"></path><path d="M263.73 207.87 a53.42 53.42 0 1 0 106.84 0 a53.42 53.42 0 1 0 -106.84 0z" fill="rgba(3, 123, 11, 1)"></path><path d="M580.33 523.33L585.73 523.33L585.73 526.98L580.33 526.98z" fill="rgba(20, 83, 97, 1)"></path><path d="M645.96 402.79a46.91 46.91 0 1 0-93.33-9.52z" fill="rgba(20, 83, 97, 1)"></path><path d="M1226.81 10.76 a28.43 28.43 0 1 0 56.86 0 a28.43 28.43 0 1 0 -56.86 0z" stroke="rgba(194, 65, 12, 1)"></path><path d="M641.51 116.25L685.61 116.25L685.61 148.3L641.51 148.3z" fill="rgba(194, 65, 12, 1)"></path><path d="M790.22 558.59L836.38 558.59L836.38 596L790.22 596z" fill="rgba(194, 65, 12, 1)"></path><path d="M1004.13 373.06 a55.16 55.16 0 1 0 110.32 0 a55.16 55.16 0 1 0 -110.32 0z" fill="rgba(3, 123, 11, 1)"></path><path d="M27.11 259.71L34.84 259.71L34.84 273.8L27.11 273.8z" fill="rgba(20, 83, 97, 1)"></path><path d="M133.97 504.74L154.35 504.74L154.35 525.12L133.97 525.12z" fill="rgba(194, 65, 12, 1)"></path><path d="M778.91 30.16a17.06 17.06 0 1 0 28.06 19.4z" fill="rgba(194, 65, 12, 1)"></path><path d="M120.55 110.21L150.63 110.21L150.63 121.37L120.55 121.37z" stroke="rgba(3, 123, 11, 1)"></path><path d="M320.44 463.53L361.82 463.53L361.82 478.38L320.44 478.38z" stroke="rgba(20, 83, 97, 1)"></path><path d="M1135.86 7.93L1148.59 7.93L1148.59 52.76L1135.86 52.76z" fill="rgba(20, 83, 97, 1)"></path><path d="M748.66 536.53 a22.58 22.58 0 1 0 45.16 0 a22.58 22.58 0 1 0 -45.16 0z" fill="rgba(194, 65, 12, 1)"></path><path d="M1089.26 233.85a35.7 35.7 0 1 0 60.79-37.45z" stroke="rgba(194, 65, 12, 1)"></path><path d="M1266.97 422.06 a9.89 9.89 0 1 0 19.78 0 a9.89 9.89 0 1 0 -19.78 0z" fill="rgba(194, 65, 12, 1)"></path><path d="M375.91 390.39L403.62 390.39L403.62 436.4L375.91 436.4z" fill="rgba(20, 83, 97, 1)"></path><path d="M1316 37.25a5.69 5.69 0 1 0 5-10.22z" fill="rgba(3, 123, 11, 1)"></path><path d="M636.45 481.33 a55.9 55.9 0 1 0 111.8 0 a55.9 55.9 0 1 0 -111.8 0z" fill="rgba(3, 123, 11, 1)"></path><path d="M769.96 198.9 a16.8 16.8 0 1 0 33.6 0 a16.8 16.8 0 1 0 -33.6 0z" fill="rgba(194, 65, 12, 1)"></path><path d="M38.27 262.19 a40.78 40.78 0 1 0 81.56 0 a40.78 40.78 0 1 0 -81.56 0z" fill="rgba(194, 65, 12, 1)"></path><path d="M1279.75 508.11a42.25 42.25 0 1 0-36.94-75.99z" stroke="rgba(20, 83, 97, 1)"></path><path d="M1059.04 144.53L1071.11 144.53L1071.11 195.34L1059.04 195.34z" fill="rgba(194, 65, 12, 1)"></path><path d="M429.09 305.58 a34.14 34.14 0 1 0 68.28 0 a34.14 34.14 0 1 0 -68.28 0z" stroke="rgba(3, 123, 11, 1)"></path><path d="M1307.1 507.26L1324.49 507.26L1324.49 524.65L1307.1 524.65z" fill="rgba(20, 83, 97, 1)"></path><path d="M471.18 17.65L476.74 17.65L476.74 23.21L471.18 23.21z" fill="rgba(3, 123, 11, 1)"></path></g><defs><mask id="SvgjsMask1005"><rect width="1440" height="560" fill="#ffffff"></rect></mask></defs></svg>