<svg xmlns="http://www.w3.org/2000/svg" version="1.1" xmlns:xlink="http://www.w3.org/1999/xlink" xmlns:svgjs="http://svgjs.com/svgjs" width="1440" height="560" preserveAspectRatio="none" viewBox="0 0 1440 560"><g mask="url(&quot;#SvgjsMask1044&quot;)" fill="none"><path d="M100.52 66.62L165.48 104.12L165.48 179.12L100.52 216.62L35.57 179.12L35.57 104.12zM100.52 291.62L165.48 329.12L165.48 404.12L100.52 441.62L35.57 404.12L35.57 329.12zM35.57 404.12L100.52 441.62L100.52 516.62L35.57 554.12L-29.38 516.62L-29.38 441.62zM165.48 -45.88L230.43 -8.38L230.43 66.62L165.48 104.12L100.52 66.62L100.52 -8.38zM360.34 66.62L425.29 104.12L425.29 179.12L360.34 216.62L295.38 179.12L295.38 104.12zM555.2 179.12L620.15 216.62L620.15 291.62L555.2 329.12L490.25 291.62L490.25 216.62zM815.01 404.12L879.97 441.62L879.97 516.62L815.01 554.12L750.06 516.62L750.06 441.62zM1074.83 179.12L1139.78 216.62L1139.78 291.62L1074.83 329.12L1009.88 291.62L1009.88 216.62zM1074.83 404.12L1139.78 441.62L1139.78 516.62L1074.83 554.12L1009.88 516.62L1009.88 441.62zM1204.74 -45.88L1269.69 -8.38L1269.69 66.62L1204.74 104.12L1139.78 66.62L1139.78 -8.38zM1269.69 66.62L1334.64 104.12L1334.64 179.12L1269.69 216.62L1204.74 179.12L1204.74 104.12zM1464.55 404.12L1529.51 441.62L1529.51 516.62L1464.55 554.12L1399.6 516.62L1399.6 441.62z" stroke="rgba(157, 157, 157, 1)" stroke-width="2"></path><path d="M93.02 66.62 a7.5 7.5 0 1 0 15 0 a7.5 7.5 0 1 0 -15 0zM157.98 104.12 a7.5 7.5 0 1 0 15 0 a7.5 7.5 0 1 0 -15 0zM157.98 179.12 a7.5 7.5 0 1 0 15 0 a7.5 7.5 0 1 0 -15 0zM93.02 216.62 a7.5 7.5 0 1 0 15 0 a7.5 7.5 0 1 0 -15 0zM28.07 179.12 a7.5 7.5 0 1 0 15 0 a7.5 7.5 0 1 0 -15 0zM28.07 104.12 a7.5 7.5 0 1 0 15 0 a7.5 7.5 0 1 0 -15 0zM93.02 291.62 a7.5 7.5 0 1 0 15 0 a7.5 7.5 0 1 0 -15 0zM157.98 329.12 a7.5 7.5 0 1 0 15 0 a7.5 7.5 0 1 0 -15 0zM157.98 404.12 a7.5 7.5 0 1 0 15 0 a7.5 7.5 0 1 0 -15 0zM93.02 441.62 a7.5 7.5 0 1 0 15 0 a7.5 7.5 0 1 0 -15 0zM28.07 404.12 a7.5 7.5 0 1 0 15 0 a7.5 7.5 0 1 0 -15 0zM28.07 329.12 a7.5 7.5 0 1 0 15 0 a7.5 7.5 0 1 0 -15 0zM93.02 516.62 a7.5 7.5 0 1 0 15 0 a7.5 7.5 0 1 0 -15 0zM28.07 554.12 a7.5 7.5 0 1 0 15 0 a7.5 7.5 0 1 0 -15 0zM-36.88 516.62 a7.5 7.5 0 1 0 15 0 a7.5 7.5 0 1 0 -15 0zM-36.88 441.62 a7.5 7.5 0 1 0 15 0 a7.5 7.5 0 1 0 -15 0zM157.98 -45.88 a7.5 7.5 0 1 0 15 0 a7.5 7.5 0 1 0 -15 0zM222.93 -8.38 a7.5 7.5 0 1 0 15 0 a7.5 7.5 0 1 0 -15 0zM222.93 66.62 a7.5 7.5 0 1 0 15 0 a7.5 7.5 0 1 0 -15 0zM93.02 -8.38 a7.5 7.5 0 1 0 15 0 a7.5 7.5 0 1 0 -15 0zM352.84 66.62 a7.5 7.5 0 1 0 15 0 a7.5 7.5 0 1 0 -15 0zM417.79 104.12 a7.5 7.5 0 1 0 15 0 a7.5 7.5 0 1 0 -15 0zM417.79 179.12 a7.5 7.5 0 1 0 15 0 a7.5 7.5 0 1 0 -15 0zM352.84 216.62 a7.5 7.5 0 1 0 15 0 a7.5 7.5 0 1 0 -15 0zM287.88 179.12 a7.5 7.5 0 1 0 15 0 a7.5 7.5 0 1 0 -15 0zM287.88 104.12 a7.5 7.5 0 1 0 15 0 a7.5 7.5 0 1 0 -15 0zM547.7 179.12 a7.5 7.5 0 1 0 15 0 a7.5 7.5 0 1 0 -15 0zM612.65 216.62 a7.5 7.5 0 1 0 15 0 a7.5 7.5 0 1 0 -15 0zM612.65 291.62 a7.5 7.5 0 1 0 15 0 a7.5 7.5 0 1 0 -15 0zM547.7 329.12 a7.5 7.5 0 1 0 15 0 a7.5 7.5 0 1 0 -15 0zM482.75 291.62 a7.5 7.5 0 1 0 15 0 a7.5 7.5 0 1 0 -15 0zM482.75 216.62 a7.5 7.5 0 1 0 15 0 a7.5 7.5 0 1 0 -15 0zM807.51 404.12 a7.5 7.5 0 1 0 15 0 a7.5 7.5 0 1 0 -15 0zM872.47 441.62 a7.5 7.5 0 1 0 15 0 a7.5 7.5 0 1 0 -15 0zM872.47 516.62 a7.5 7.5 0 1 0 15 0 a7.5 7.5 0 1 0 -15 0zM807.51 554.12 a7.5 7.5 0 1 0 15 0 a7.5 7.5 0 1 0 -15 0zM742.56 516.62 a7.5 7.5 0 1 0 15 0 a7.5 7.5 0 1 0 -15 0zM742.56 441.62 a7.5 7.5 0 1 0 15 0 a7.5 7.5 0 1 0 -15 0zM1067.33 179.12 a7.5 7.5 0 1 0 15 0 a7.5 7.5 0 1 0 -15 0zM1132.28 216.62 a7.5 7.5 0 1 0 15 0 a7.5 7.5 0 1 0 -15 0zM1132.28 291.62 a7.5 7.5 0 1 0 15 0 a7.5 7.5 0 1 0 -15 0zM1067.33 329.12 a7.5 7.5 0 1 0 15 0 a7.5 7.5 0 1 0 -15 0zM1002.38 291.62 a7.5 7.5 0 1 0 15 0 a7.5 7.5 0 1 0 -15 0zM1002.38 216.62 a7.5 7.5 0 1 0 15 0 a7.5 7.5 0 1 0 -15 0zM1067.33 404.12 a7.5 7.5 0 1 0 15 0 a7.5 7.5 0 1 0 -15 0zM1132.28 441.62 a7.5 7.5 0 1 0 15 0 a7.5 7.5 0 1 0 -15 0zM1132.28 516.62 a7.5 7.5 0 1 0 15 0 a7.5 7.5 0 1 0 -15 0zM1067.33 554.12 a7.5 7.5 0 1 0 15 0 a7.5 7.5 0 1 0 -15 0zM1002.38 516.62 a7.5 7.5 0 1 0 15 0 a7.5 7.5 0 1 0 -15 0zM1002.38 441.62 a7.5 7.5 0 1 0 15 0 a7.5 7.5 0 1 0 -15 0zM1197.24 -45.88 a7.5 7.5 0 1 0 15 0 a7.5 7.5 0 1 0 -15 0zM1262.19 -8.38 a7.5 7.5 0 1 0 15 0 a7.5 7.5 0 1 0 -15 0zM1262.19 66.62 a7.5 7.5 0 1 0 15 0 a7.5 7.5 0 1 0 -15 0zM1197.24 104.12 a7.5 7.5 0 1 0 15 0 a7.5 7.5 0 1 0 -15 0zM1132.28 66.62 a7.5 7.5 0 1 0 15 0 a7.5 7.5 0 1 0 -15 0zM1132.28 -8.38 a7.5 7.5 0 1 0 15 0 a7.5 7.5 0 1 0 -15 0zM1327.14 104.12 a7.5 7.5 0 1 0 15 0 a7.5 7.5 0 1 0 -15 0zM1327.14 179.12 a7.5 7.5 0 1 0 15 0 a7.5 7.5 0 1 0 -15 0zM1262.19 216.62 a7.5 7.5 0 1 0 15 0 a7.5 7.5 0 1 0 -15 0zM1197.24 179.12 a7.5 7.5 0 1 0 15 0 a7.5 7.5 0 1 0 -15 0zM1457.05 404.12 a7.5 7.5 0 1 0 15 0 a7.5 7.5 0 1 0 -15 0zM1522.01 441.62 a7.5 7.5 0 1 0 15 0 a7.5 7.5 0 1 0 -15 0zM1522.01 516.62 a7.5 7.5 0 1 0 15 0 a7.5 7.5 0 1 0 -15 0zM1457.05 554.12 a7.5 7.5 0 1 0 15 0 a7.5 7.5 0 1 0 -15 0zM1392.1 516.62 a7.5 7.5 0 1 0 15 0 a7.5 7.5 0 1 0 -15 0zM1392.1 441.62 a7.5 7.5 0 1 0 15 0 a7.5 7.5 0 1 0 -15 0z" fill="rgba(157, 157, 157, 1)"></path><path d="M20.95 128.08L72.91 158.08L72.91 218.08L20.95 248.08L-31.01 218.08L-31.01 158.08zM72.91 218.08L124.88 248.08L124.88 308.08L72.91 338.08L20.95 308.08L20.95 248.08zM20.95 308.08L72.91 338.08L72.91 398.08L20.95 428.08L-31.01 398.08L-31.01 338.08zM176.84 218.08L228.8 248.08L228.8 308.08L176.84 338.08L124.88 308.08L124.88 248.08zM332.73 488.08L384.69 518.08L384.69 578.08L332.73 608.08L280.76 578.08L280.76 518.08zM436.65 128.08L488.62 158.08L488.62 218.08L436.65 248.08L384.69 218.08L384.69 158.08zM696.47 398.08L748.43 428.08L748.43 488.08L696.47 518.08L644.51 488.08L644.51 428.08zM748.43 -51.92L800.39 -21.92L800.39 38.08L748.43 68.08L696.47 38.08L696.47 -21.92zM904.32 38.08L956.28 68.08L956.28 128.08L904.32 158.08L852.36 128.08L852.36 68.08zM852.36 308.08L904.32 338.08L904.32 398.08L852.36 428.08L800.4 398.08L800.4 338.08zM956.28 308.08L1008.25 338.08L1008.25 398.08L956.28 428.08L904.32 398.08L904.32 338.08zM956.28 488.08L1008.25 518.08L1008.25 578.08L956.28 608.08L904.32 578.08L904.32 518.08zM1060.21 -51.92L1112.17 -21.92L1112.17 38.08L1060.21 68.08L1008.25 38.08L1008.25 -21.92zM1060.21 128.08L1112.17 158.08L1112.17 218.08L1060.21 248.08L1008.25 218.08L1008.25 158.08zM1060.21 308.08L1112.17 338.08L1112.17 398.08L1060.21 428.08L1008.25 398.08L1008.25 338.08zM1268.06 308.08L1320.03 338.08L1320.03 398.08L1268.06 428.08L1216.1 398.08L1216.1 338.08zM1320.03 398.08L1371.99 428.08L1371.99 488.08L1320.03 518.08L1268.06 488.08L1268.06 428.08zM1423.95 38.08L1475.91 68.08L1475.91 128.08L1423.95 158.08L1371.99 128.08L1371.99 68.08zM1423.95 398.08L1475.91 428.08L1475.91 488.08L1423.95 518.08L1371.99 488.08L1371.99 428.08z" stroke="rgba(194, 65, 12, 1)" stroke-width="2"></path></g><defs><mask id="SvgjsMask1044"><rect width="1440" height="560" fill="#ffffff"></rect></mask></defs></svg>